<?xml version="1.0" standalone="no"?><!DOCTYPE svg PUBLIC "-//W3C//DTD SVG 1.1//EN" "http://www.w3.org/Graphics/SVG/1.1/DTD/svg11.dtd"><svg class="icon" width="48px" height="48.00px" viewBox="0 0 1024 1024" version="1.1" xmlns="http://www.w3.org/2000/svg"><path fill="#ffffff" d="M160 384v480h704V384h64v544h-832V384h64z m389.44-265.408l32-55.424 277.12 160-32 55.424-110.848-64-96 166.272 138.56 80-128 221.696a192 192 0 0 1-332.544-192l128-221.696 138.496 80 96-166.272-110.784-64zM449.152 356.288l-96 166.272a128 128 0 0 0 38.72 169.792l8.128 5.12a128 128 0 0 0 169.792-38.784l5.12-8.128 96-166.272-83.2-48-64 110.848-55.424-32 63.936-110.848-83.072-48z"  /></svg>