<?xml version="1.0" standalone="no"?><!DOCTYPE svg PUBLIC "-//W3C//DTD SVG 1.1//EN" "http://www.w3.org/Graphics/SVG/1.1/DTD/svg11.dtd"><svg class="icon" width="48px" height="48.00px" viewBox="0 0 1024 1024" version="1.1" xmlns="http://www.w3.org/2000/svg"><path fill="#ffffff" d="M977 513c0 253.3-205.3 458.4-460 459.8C263.5 974.3 55 765.2 55.4 510c0.4-252.6 207.2-459.2 460.7-460C770.4 49.2 977 256.8 977 513zM516.8 91C286.4 91 95.9 279.5 95.7 507.8c-0.2 234 187.9 424.5 419.5 424.8 231.7 0.3 421.6-188.8 422.1-420.3C937.8 280.6 748.5 91 516.8 91z"  /><path fill="#ffffff" d="M694.1 798.6c-79.9 59.3-281.5 71.1-365.4-6 20.7-33.9 41.6-68.2 62.4-102.4 20.6-33.8 41.2-67.6 60.7-99.6 20.9 6.1 40.5 15.8 60.4 16.4 20.2 0.7 40.7-7.5 65.6-12.8 37.4 65.8 76.9 135.2 116.3 204.4zM156.5 487.8c2.1-137 70-235.2 178.7-311.6 2.8 3.8 5.9 7.1 8 10.8 34.9 61.3 69.5 122.7 104.8 183.7 6.7 11.6 7.3 18.9-4.2 28.1-27.7 22.2-40.9 52.6-44.4 88.9-80.2 0.1-160.2 0.1-242.9 0.1zM699.2 180.1C800.2 224.6 882 374 874.9 488.4c-6.2 0.3-12.5 0.8-18.9 0.8-68 0.1-135.9-0.3-203.9 0.3-13.7 0.1-17.5-4.9-22.8-17.4-10.9-25.6-26.9-49-40-73.7-3.4-6.4-7.6-16.6-5-21.3 37.4-65.7 76-130.8 114.9-197zM510.5 425.9c40.4-0.1 72.3 31.2 72.1 70.9-0.2 39.2-31.6 71.4-69.8 71.5-40.1 0.1-72.1-31.4-72.2-71.2-0.2-38.8 31.5-71.1 69.9-71.2z"  /></svg>