<?xml version="1.0" standalone="no"?><!DOCTYPE svg PUBLIC "-//W3C//DTD SVG 1.1//EN" "http://www.w3.org/Graphics/SVG/1.1/DTD/svg11.dtd"><svg class="icon" width="48px" height="48.00px" viewBox="0 0 1024 1024" version="1.1" xmlns="http://www.w3.org/2000/svg"><path d="M128.384 176v704L928 656V320a1001.952 1001.952 0 0 0-171.2-128c-90.944-53.76-313.152-79.392-420.8-64-71.776 10.24-140.96 26.24-207.616 48z" fill="#FFFFFF" /><path d="M128 808.576V171.936c166.432-63.232 313.856-82.56 442.272-57.984S817.952 207.2 928 320v338.208L222.72 876.8A64 64 0 1 1 128 808.576zM160.384 800c22.752 0.128 42.72 12.16 53.952 30.144l480.928-371.008a391.552 391.552 0 0 0-152.8-55.744c-139.84-20.448-266.976-5.12-382.08 45.888V800zM576 376.928c52.672 11.232 101.376 31.744 146.144 61.44l62.72-48.352c-66.848-50.24-136.448-83.104-208.864-98.88v85.76z m-32-5.632V285.312c-59.52-8.992-123.52-8.352-192 2.016v78.944c61.376-6.144 125.376-4.48 192 5.024z m-224-1.056V292.8c-50.944 9.76-104.256 24.64-160 44.8v76.992a663.232 663.232 0 0 1 160-44.352z m576 262.656v-140.608a840.256 840.256 0 0 0-85.216-81.856l-61.536 47.456c55.424 43.072 104.32 101.44 146.752 175.008z m0-288.224l-59.296 45.76A847.008 847.008 0 0 1 896 445.664V344.64zM320 260.256V149.44c-50.944 9.728-104.256 24.64-160 44.768v109.408a1069.344 1069.344 0 0 1 160-43.36z m32-5.28c68-9.888 132-10.56 192-2.016v-111.04c-59.52-8.96-123.52-8.32-192 2.016v111.04z m224 3.488c82.144 16.704 160.512 53.792 235.104 111.296l68.352-52.704c-94.912-89.984-196-146.24-303.456-169.28v110.688z m147.008 219.68L269.568 827.936l595.424-184.704c-41.312-70.336-88.608-125.28-141.984-165.088z" fill="#5D6D7E" /></svg>