<?xml version="1.0" standalone="no"?><!DOCTYPE svg PUBLIC "-//W3C//DTD SVG 1.1//EN" "http://www.w3.org/Graphics/SVG/1.1/DTD/svg11.dtd"><svg class="icon" width="48px" height="48.00px" viewBox="0 0 1024 1024" version="1.1" xmlns="http://www.w3.org/2000/svg"><path fill="#ffffff" d="M237.11744 625.37728h557.95712V311.54176a34.85696 34.85696 0 0 1 69.632 0v453.34528a34.85696 34.85696 0 0 1-34.85696 34.85696H202.26048a34.85696 34.85696 0 0 1-34.85696-34.85696V311.54176a34.85696 34.85696 0 0 1 69.632 0z m249.20064-62.09536l-18.30912-16.384a14.99136 14.99136 0 0 0-20.48 0l-18.35008 16.384a47.104 47.104 0 0 1-64.9216 0l-18.35008-16.384a14.99136 14.99136 0 0 0-20.48 0l-23.71584 21.38112a16.384 16.384 0 0 1-25.68192-4.096 24.86272 24.86272 0 0 1 3.4816-30.67904L303.104 512a47.22688 47.22688 0 0 1 64.96256 0l18.30912 16.384a14.99136 14.99136 0 0 0 20.48 0l18.30912-16.384a47.18592 47.18592 0 0 1 64.9216 0l18.35008 16.384a14.99136 14.99136 0 0 0 20.48 0l18.35008-16.384a47.18592 47.18592 0 0 1 64.9216 0l18.35008 16.384a14.99136 14.99136 0 0 0 20.48 0l18.30912-16.384a47.22688 47.22688 0 0 1 64.96256 0l18.30912 16.384a24.82176 24.82176 0 0 1 3.52256 30.67904 16.384 16.384 0 0 1-25.72288 4.096l-18.30912-16.384a14.99136 14.99136 0 0 0-20.48 0l-18.35008 16.384a47.02208 47.02208 0 0 1-64.9216 0l-18.35008-16.384a14.99136 14.99136 0 0 0-20.48 0l-18.30912 16.384a48.08704 48.08704 0 0 1-32.3584 12.98432 48.61952 48.61952 0 0 1-32.48128-12.94336z m0-89.41568l-18.30912-16.384a14.99136 14.99136 0 0 0-20.48 0l-18.35008 16.384a47.104 47.104 0 0 1-64.9216 0l-18.35008-16.384a14.99136 14.99136 0 0 0-20.48 0l-23.71584 21.42208a16.384 16.384 0 0 1-25.68192-4.096 24.86272 24.86272 0 0 1 3.4816-30.67904l23.59296-21.504a47.14496 47.14496 0 0 1 64.96256 0l18.30912 16.384a14.99136 14.99136 0 0 0 20.48 0l18.30912-16.384a47.104 47.104 0 0 1 64.9216 0l18.35008 16.384a14.99136 14.99136 0 0 0 20.48 0l18.35008-16.384a47.104 47.104 0 0 1 64.9216 0l18.35008 16.384a14.99136 14.99136 0 0 0 20.48 0l18.30912-16.384a47.14496 47.14496 0 0 1 64.96256 0l18.30912 16.384a24.82176 24.82176 0 0 1 3.52256 30.67904 16.384 16.384 0 0 1-25.72288 4.096l-18.30912-16.384a14.99136 14.99136 0 0 0-20.48 0l-18.35008 16.384a47.104 47.104 0 0 1-64.9216 0l-18.35008-16.384a14.99136 14.99136 0 0 0-20.48 0l-18.30912 16.384a48.08704 48.08704 0 0 1-32.3584 12.94336 48.78336 48.78336 0 0 1-32.48128-12.9024z m0-89.41568l-18.30912-16.384a14.99136 14.99136 0 0 0-20.48 0l-18.35008 16.384a47.104 47.104 0 0 1-64.9216 0l-18.35008-16.384a14.99136 14.99136 0 0 0-20.48 0l-23.71584 21.42208a16.384 16.384 0 0 1-25.68192-4.096 24.86272 24.86272 0 0 1 3.4816-30.67904L303.104 333.2096a47.14496 47.14496 0 0 1 64.96256 0l18.30912 16.384a14.99136 14.99136 0 0 0 20.48 0l18.30912-16.384a47.104 47.104 0 0 1 64.9216 0l18.35008 16.384a14.99136 14.99136 0 0 0 20.48 0l18.35008-16.384a47.104 47.104 0 0 1 64.9216 0l18.35008 16.384a14.99136 14.99136 0 0 0 20.48 0l18.30912-16.384a47.14496 47.14496 0 0 1 64.96256 0l18.30912 16.384a24.82176 24.82176 0 0 1 3.52256 30.67904 16.384 16.384 0 0 1-25.72288 4.096l-18.30912-16.384a14.99136 14.99136 0 0 0-20.48 0l-18.35008 16.384a47.104 47.104 0 0 1-64.9216 0l-18.35008-16.384a14.99136 14.99136 0 0 0-20.48 0l-18.30912 16.384a48.08704 48.08704 0 0 1-32.3584 12.98432 48.66048 48.66048 0 0 1-32.48128-12.86144z" /></svg>