{
  "accessors": [
    {
      "name": "Object076_1_0_positions",
      "componentType": 5126,
      "count": 5091,
      "min": [
        -0.9452999830245972,
        0.14309999346733093,
        -2.289900064468384
      ],
      "max": [
        0.9452999830245972,
        1.2574000358581543,
        2.2904000282287598
      ],
      "type": "VEC3",
      "bufferView": 0,
      "byteOffset": 0
    },
    {
      "name": "Object076_1_0_normals",
      "componentType": 5126,
      "count": 5091,
      "min": [
        -0.9999851584434509,
        -0.9999942183494568,
        -0.9994685053825378
      ],
      "max": [
        0.9999851584434509,
        0.9999880194664001,
        0.9999993443489075
      ],
      "type": "VEC3",
      "bufferView": 1,
      "byteOffset": 0
    },
    {
      "name": "Object076_1_0_texcoords",
      "componentType": 5126,
      "count": 5091,
      "min": [
        0.0015999999595806003,
        0.05490000173449516
      ],
      "max": [
        0.9300000071525574,
        0.9898999929428101
      ],
      "type": "VEC2",
      "bufferView": 2,
      "byteOffset": 0
    },
    {
      "name": "Object076_1_0_indices",
      "componentType": 5123,
      "count": 13146,
      "min": [
        0
      ],
      "max": [
        5090
      ],
      "type": "SCALAR",
      "bufferView": 3,
      "byteOffset": 0
    },
    {
      "name": "Object076_1_1_positions",
      "componentType": 5126,
      "count": 234,
      "min": [
        -0.6796000003814697,
        0.18279999494552612,
        1.7438000440597534
      ],
      "max": [
        0.7049999833106995,
        0.7195000052452087,
        2.2251999378204346
      ],
      "type": "VEC3",
      "bufferView": 0,
      "byteOffset": 61092
    },
    {
      "name": "Object076_1_1_normals",
      "componentType": 5126,
      "count": 234,
      "min": [
        -0.5565003752708435,
        -0.45820507407188416,
        0.429595947265625
      ],
      "max": [
        0.5565003752708435,
        0.898791491985321,
        0.989224910736084
      ],
      "type": "VEC3",
      "bufferView": 1,
      "byteOffset": 61092
    },
    {
      "name": "Object076_1_1_texcoords",
      "componentType": 5126,
      "count": 234,
      "min": [
        0.1136000007390976,
        0.5864999890327454
      ],
      "max": [
        0.628600001335144,
        0.8062999844551086
      ],
      "type": "VEC2",
      "bufferView": 2,
      "byteOffset": 40728
    },
    {
      "name": "Object076_1_1_indices",
      "componentType": 5123,
      "count": 624,
      "min": [
        0
      ],
      "max": [
        233
      ],
      "type": "SCALAR",
      "bufferView": 3,
      "byteOffset": 26292
    },
    {
      "name": "Object076_1_2_positions",
      "componentType": 5126,
      "count": 578,
      "min": [
        -0.9312000274658203,
        0.14309999346733093,
        -1.9687000513076782
      ],
      "max": [
        0.9312000274658203,
        0.725600004196167,
        1.9285999536514282
      ],
      "type": "VEC3",
      "bufferView": 0,
      "byteOffset": 63900
    },
    {
      "name": "Object076_1_2_normals",
      "componentType": 5126,
      "count": 578,
      "min": [
        -1,
        -0.9999672174453735,
        -0.9995162487030029
      ],
      "max": [
        1,
        0.14350713789463043,
        1
      ],
      "type": "VEC3",
      "bufferView": 1,
      "byteOffset": 63900
    },
    {
      "name": "Object076_1_2_texcoords",
      "componentType": 5126,
      "count": 578,
      "min": [
        -17.57539939880371,
        -76.4468002319336
      ],
      "max": [
        28.854700088500977,
        117.86820220947266
      ],
      "type": "VEC2",
      "bufferView": 2,
      "byteOffset": 42600
    },
    {
      "name": "Object076_1_2_indices",
      "componentType": 5123,
      "count": 1182,
      "min": [
        0
      ],
      "max": [
        577
      ],
      "type": "SCALAR",
      "bufferView": 3,
      "byteOffset": 27540
    },
    {
      "name": "Object076_1_3_positions",
      "componentType": 5126,
      "count": 44,
      "min": [
        -0.9452999830245972,
        0.9309999942779541,
        -0.13699999451637268
      ],
      "max": [
        0.9452999830245972,
        1.0587999820709229,
        -0.08219999819993973
      ],
      "type": "VEC3",
      "bufferView": 0,
      "byteOffset": 70836
    },
    {
      "name": "Object076_1_3_normals",
      "componentType": 5126,
      "count": 44,
      "min": [
        -0.3105895221233368,
        -0.011399984359741211,
        -0.9596987366676331
      ],
      "max": [
        0.3085913360118866,
        0.021400542929768562,
        -0.9503679871559143
      ],
      "type": "VEC3",
      "bufferView": 1,
      "byteOffset": 70836
    },
    {
      "name": "Object076_1_3_texcoords",
      "componentType": 5126,
      "count": 44,
      "min": [
        0.12800000607967377,
        0.08820000290870667
      ],
      "max": [
        0.22699999809265137,
        0.15970000624656677
      ],
      "type": "VEC2",
      "bufferView": 2,
      "byteOffset": 47224
    },
    {
      "name": "Object076_1_3_indices",
      "componentType": 5123,
      "count": 60,
      "min": [
        0
      ],
      "max": [
        43
      ],
      "type": "SCALAR",
      "bufferView": 3,
      "byteOffset": 29904
    },
    {
      "name": "Object076_1_4_positions",
      "componentType": 5126,
      "count": 136,
      "min": [
        -0.904699981212616,
        0.33970001339912415,
        -1.0379999876022339
      ],
      "max": [
        0.904699981212616,
        0.9222999811172485,
        0.31619998812675476
      ],
      "type": "VEC3",
      "bufferView": 0,
      "byteOffset": 71364
    },
    {
      "name": "Object076_1_4_normals",
      "componentType": 5126,
      "count": 136,
      "min": [
        -0.999699592590332,
        -0.21850016713142395,
        -0.00940041895955801
      ],
      "max": [
        0.999699592590332,
        0.9916951060295105,
        0.27600395679473877
      ],
      "type": "VEC3",
      "bufferView": 1,
      "byteOffset": 71364
    },
    {
      "name": "Object076_1_4_texcoords",
      "componentType": 5126,
      "count": 136,
      "min": [
        0.42289999127388,
        0.362199991941452
      ],
      "max": [
        0.7264000177383423,
        0.7318000197410583
      ],
      "type": "VEC2",
      "bufferView": 2,
      "byteOffset": 47576
    },
    {
      "name": "Object076_1_4_indices",
      "componentType": 5123,
      "count": 246,
      "min": [
        0
      ],
      "max": [
        135
      ],
      "type": "SCALAR",
      "bufferView": 3,
      "byteOffset": 30024
    },
    {
      "name": "Benz010_1_0_positions",
      "componentType": 5126,
      "count": 672,
      "min": [
        -0.9142000079154968,
        0,
        -1.6715999841690063
      ],
      "max": [
        0.9118000268936157,
        0.7005000114440918,
        1.6717000007629395
      ],
      "type": "VEC3",
      "bufferView": 0,
      "byteOffset": 72996
    },
    {
      "name": "Benz010_1_0_normals",
      "componentType": 5126,
      "count": 672,
      "min": [
        -0.976126492023468,
        -0.9412158727645874,
        -0.9412158727645874
      ],
      "max": [
        0.976126492023468,
        0.9412158727645874,
        0.9412158727645874
      ],
      "type": "VEC3",
      "bufferView": 1,
      "byteOffset": 72996
    },
    {
      "name": "Benz010_1_0_texcoords",
      "componentType": 5126,
      "count": 672,
      "min": [
        0.6935999989509583,
        0.03830000013113022
      ],
      "max": [
        0.963100016117096,
        0.3077000081539154
      ],
      "type": "VEC2",
      "bufferView": 2,
      "byteOffset": 48664
    },
    {
      "name": "Benz010_1_0_indices",
      "componentType": 5123,
      "count": 3984,
      "min": [
        0
      ],
      "max": [
        671
      ],
      "type": "SCALAR",
      "bufferView": 3,
      "byteOffset": 30516
    },
    {
      "name": "Object077_1_0_positions",
      "componentType": 5126,
      "count": 4,
      "min": [
        0.6485000252723694,
        0.7563999891281128,
        -2.095599889755249
      ],
      "max": [
        0.7369999885559082,
        0.849399983882904,
        -2.023900032043457
      ],
      "type": "VEC3",
      "bufferView": 0,
      "byteOffset": 81060
    },
    {
      "name": "Object077_1_0_normals",
      "componentType": 5126,
      "count": 4,
      "min": [
        0.5243862867355347,
        0.20210473239421844,
        -0.805578887462616
      ],
      "max": [
        0.5865137577056885,
        0.27579277753829956,
        -0.7843183875083923
      ],
      "type": "VEC3",
      "bufferView": 1,
      "byteOffset": 81060
    },
    {
      "name": "Object077_1_0_texcoords",
      "componentType": 5126,
      "count": 4,
      "min": [
        0.2872999906539917,
        0.8481000065803528
      ],
      "max": [
        0.30869999527931213,
        0.8668000102043152
      ],
      "type": "VEC2",
      "bufferView": 2,
      "byteOffset": 54040
    },
    {
      "name": "Object077_1_0_indices",
      "componentType": 5123,
      "count": 6,
      "min": [
        0
      ],
      "max": [
        3
      ],
      "type": "SCALAR",
      "bufferView": 3,
      "byteOffset": 38484
    },
    {
      "name": "Object078_1_0_positions",
      "componentType": 5126,
      "count": 5,
      "min": [
        -0.8693000078201294,
        0.715399980545044,
        -1.9129999876022339
      ],
      "max": [
        -0.8385999798774719,
        0.8224999904632568,
        -1.780500054359436
      ],
      "type": "VEC3",
      "bufferView": 0,
      "byteOffset": 81108
    },
    {
      "name": "Object078_1_0_normals",
      "componentType": 5126,
      "count": 5,
      "min": [
        -0.988767147064209,
        0.010499650612473488,
        -0.2763984501361847
      ],
      "max": [
        -0.9544946551322937,
        0.11199937015771866,
        -0.14909504354000092
      ],
      "type": "VEC3",
      "bufferView": 1,
      "byteOffset": 81108
    },
    {
      "name": "Object078_1_0_texcoords",
      "componentType": 5126,
      "count": 5,
      "min": [
        0.24549999833106995,
        0.8529999852180481
      ],
      "max": [
        0.26030001044273376,
        0.875
      ],
      "type": "VEC2",
      "bufferView": 2,
      "byteOffset": 54072
    },
    {
      "name": "Object078_1_0_indices",
      "componentType": 5123,
      "count": 6,
      "min": [
        0
      ],
      "max": [
        4
      ],
      "type": "SCALAR",
      "bufferView": 3,
      "byteOffset": 38496
    },
    {
      "name": "Object079_1_0_positions",
      "componentType": 5126,
      "count": 317,
      "min": [
        -0.896399974822998,
        0.3479999899864197,
        -2.289599895477295
      ],
      "max": [
        0.896399974822998,
        0.9139999747276306,
        2.0092999935150146
      ],
      "type": "VEC3",
      "bufferView": 0,
      "byteOffset": 81168
    },
    {
      "name": "Object079_1_0_normals",
      "componentType": 5126,
      "count": 317,
      "min": [
        -0.9946666359901428,
        -0.3075140118598938,
        -0.9931580424308777
      ],
      "max": [
        0.9942241907119751,
        0.9337022304534912,
        0.931841254234314
      ],
      "type": "VEC3",
      "bufferView": 1,
      "byteOffset": 81168
    },
    {
      "name": "Object079_1_0_texcoords",
      "componentType": 5126,
      "count": 317,
      "min": [
        -15.8371000289917,
        -65.04769897460938
      ],
      "max": [
        5.095099925994873,
        0.9369000196456909
      ],
      "type": "VEC2",
      "bufferView": 2,
      "byteOffset": 54112
    },
    {
      "name": "Object079_1_0_indices",
      "componentType": 5123,
      "count": 1347,
      "min": [
        0
      ],
      "max": [
        316
      ],
      "type": "SCALAR",
      "bufferView": 3,
      "byteOffset": 38508
    },
    {
      "name": "Object080_1_0_positions",
      "componentType": 5126,
      "count": 255,
      "min": [
        -0.7856000065803528,
        0.8654000163078308,
        -1.7466000318527222
      ],
      "max": [
        0.7856000065803528,
        1.2301000356674194,
        0.5540000200271606
      ],
      "type": "VEC3",
      "bufferView": 0,
      "byteOffset": 84972
    },
    {
      "name": "Object080_1_0_normals",
      "componentType": 5126,
      "count": 255,
      "min": [
        -0.8766480088233948,
        0.4811263382434845,
        -0.6284857988357544
      ],
      "max": [
        0.8766480088233948,
        0.9873600006103516,
        0.48780226707458496
      ],
      "type": "VEC3",
      "bufferView": 1,
      "byteOffset": 84972
    },
    {
      "name": "Object080_1_0_texcoords",
      "componentType": 5126,
      "count": 255,
      "min": [
        0.4936000108718872,
        0.31769999861717224
      ],
      "max": [
        0.9239000082015991,
        0.939300000667572
      ],
      "type": "VEC2",
      "bufferView": 2,
      "byteOffset": 56648
    },
    {
      "name": "Object080_1_0_indices",
      "componentType": 5123,
      "count": 750,
      "min": [
        0
      ],
      "max": [
        254
      ],
      "type": "SCALAR",
      "bufferView": 3,
      "byteOffset": 41204
    },
    {
      "name": "Object080_1_1_positions",
      "componentType": 5126,
      "count": 464,
      "min": [
        -0.792900025844574,
        0.7942000031471252,
        -1.7718000411987305
      ],
      "max": [
        0.792900025844574,
        1.2345999479293823,
        0.6732000112533569
      ],
      "type": "VEC3",
      "bufferView": 0,
      "byteOffset": 88032
    },
    {
      "name": "Object080_1_1_normals",
      "componentType": 5126,
      "count": 464,
      "min": [
        -0.8768988251686096,
        0.48029935359954834,
        -0.43538883328437805
      ],
      "max": [
        0.8768988251686096,
        0.9859997034072876,
        0.5261101722717285
      ],
      "type": "VEC3",
      "bufferView": 1,
      "byteOffset": 88032
    },
    {
      "name": "Object080_1_1_texcoords",
      "componentType": 5126,
      "count": 464,
      "min": [
        0.4936000108718872,
        0.31769999861717224
      ],
      "max": [
        0.9239000082015991,
        0.9409999847412109
      ],
      "type": "VEC2",
      "bufferView": 2,
      "byteOffset": 58688
    },
    {
      "name": "Object080_1_1_indices",
      "componentType": 5123,
      "count": 708,
      "min": [
        0
      ],
      "max": [
        463
      ],
      "type": "SCALAR",
      "bufferView": 3,
      "byteOffset": 42704
    }
  ],
  "asset": {
    "generator": "obj2gltf",
    "version": "2.0"
  },
  "buffers": [
    {
      "name": "A_Car_001",
      "byteLength": 383104,
      "uri": "data:application/octet-stream;base64,"
    }
  ],
  "bufferViews": [
    {
      "name": "bufferView_0",
      "buffer": 0,
      "byteLength": 93600,
      "byteOffset": 0,
      "byteStride": 12,
      "target": 34962
    },
    {
      "name": "bufferView_1",
      "buffer": 0,
      "byteLength": 93600,
      "byteOffset": 93600,
      "byteStride": 12,
      "target": 34962
    },
    {
      "name": "bufferView_2",
      "buffer": 0,
      "byteLength": 62400,
      "byteOffset": 187200,
      "byteStride": 8,
      "target": 34962
    },
    {
      "name": "bufferView_3",
      "buffer": 0,
      "byteLength": 44120,
      "byteOffset": 249600,
      "target": 34963
    },
    {
      "buffer": 0,
      "byteOffset": 293720,
      "byteLength": 16205
    },
    {
      "buffer": 0,
      "byteOffset": 309925,
      "byteLength": 73179
    }
  ],
  "images": [
    {
      "name": "Yellow_0829",
      "mimeType": "image/jpeg",
      "bufferView": 4
    },
    {
      "name": "Benz001",
      "mimeType": "image/jpeg",
      "bufferView": 5
    }
  ],
  "materials": [
    {
      "name": "Car_White",
      "pbrMetallicRoughness": {
        "baseColorTexture": {
          "index": 0
        },
        "baseColorFactor": [
          1,
          1,
          1,
          1
        ],
        "metallicFactor": 0,
        "roughnessFactor": 0.97
      },
      "emissiveFactor": [
        0,
        0,
        0
      ],
      "alphaMode": "OPAQUE",
      "doubleSided": false
    },
    {
      "name": "Material__4546",
      "pbrMetallicRoughness": {
        "baseColorTexture": {
          "index": 1
        },
        "baseColorFactor": [
          1,
          1,
          1,
          1
        ],
        "metallicFactor": 0,
        "roughnessFactor": 0.99
      },
      "emissiveFactor": [
        0,
        0,
        0
      ],
      "alphaMode": "OPAQUE",
      "doubleSided": false
    },
    {
      "name": "Material__482",
      "pbrMetallicRoughness": {
        "baseColorFactor": [
          0.1961,
          0.1961,
          0.1961,
          1
        ],
        "metallicFactor": 0,
        "roughnessFactor": 0.99
      },
      "emissiveFactor": [
        0,
        0,
        0
      ],
      "alphaMode": "OPAQUE",
      "doubleSided": false
    },
    {
      "name": "Material__4558",
      "pbrMetallicRoughness": {
        "baseColorFactor": [
          0.7843,
          0.7843,
          0.7843,
          1
        ],
        "metallicFactor": 0,
        "roughnessFactor": 0.99
      },
      "emissiveFactor": [
        0.3922,
        0.3922,
        0.3922
      ],
      "alphaMode": "OPAQUE",
      "doubleSided": false
    },
    {
      "name": "Material__481",
      "pbrMetallicRoughness": {
        "baseColorFactor": [
          0.1529,
          0.1529,
          0.1529,
          1
        ],
        "metallicFactor": 0,
        "roughnessFactor": 0.99
      },
      "emissiveFactor": [
        0,
        0,
        0
      ],
      "alphaMode": "OPAQUE",
      "doubleSided": false
    }
  ],
  "meshes": [
    {
      "name": "Object076_1",
      "primitives": [
        {
          "attributes": {
            "POSITION": 0,
            "NORMAL": 1,
            "TEXCOORD_0": 2
          },
          "indices": 3,
          "material": 0,
          "mode": 4
        },
        {
          "attributes": {
            "POSITION": 4,
            "NORMAL": 5,
            "TEXCOORD_0": 6
          },
          "indices": 7,
          "material": 1,
          "mode": 4
        },
        {
          "attributes": {
            "POSITION": 8,
            "NORMAL": 9,
            "TEXCOORD_0": 10
          },
          "indices": 11,
          "material": 2,
          "mode": 4
        },
        {
          "attributes": {
            "POSITION": 12,
            "NORMAL": 13,
            "TEXCOORD_0": 14
          },
          "indices": 15,
          "material": 3,
          "mode": 4
        },
        {
          "attributes": {
            "POSITION": 16,
            "NORMAL": 17,
            "TEXCOORD_0": 18
          },
          "indices": 19,
          "material": 4,
          "mode": 4
        }
      ]
    },
    {
      "name": "Benz010_1",
      "primitives": [
        {
          "attributes": {
            "POSITION": 20,
            "NORMAL": 21,
            "TEXCOORD_0": 22
          },
          "indices": 23,
          "material": 1,
          "mode": 4
        }
      ]
    },
    {
      "name": "Object077_1",
      "primitives": [
        {
          "attributes": {
            "POSITION": 24,
            "NORMAL": 25,
            "TEXCOORD_0": 26
          },
          "indices": 27,
          "material": 1,
          "mode": 4
        }
      ]
    },
    {
      "name": "Object078_1",
      "primitives": [
        {
          "attributes": {
            "POSITION": 28,
            "NORMAL": 29,
            "TEXCOORD_0": 30
          },
          "indices": 31,
          "material": 1,
          "mode": 4
        }
      ]
    },
    {
      "name": "Object079_1",
      "primitives": [
        {
          "attributes": {
            "POSITION": 32,
            "NORMAL": 33,
            "TEXCOORD_0": 34
          },
          "indices": 35,
          "material": 1,
          "mode": 4
        }
      ]
    },
    {
      "name": "Object080_1",
      "primitives": [
        {
          "attributes": {
            "POSITION": 36,
            "NORMAL": 37,
            "TEXCOORD_0": 38
          },
          "indices": 39,
          "material": 2,
          "mode": 4
        },
        {
          "attributes": {
            "POSITION": 40,
            "NORMAL": 41,
            "TEXCOORD_0": 42
          },
          "indices": 43,
          "material": 4,
          "mode": 4
        }
      ]
    }
  ],
  "nodes": [
    {
      "name": "Object076",
      "mesh": 0
    },
    {
      "name": "Benz010",
      "mesh": 1
    },
    {
      "name": "Object077",
      "mesh": 2
    },
    {
      "name": "Object078",
      "mesh": 3
    },
    {
      "name": "Object079",
      "mesh": 4
    },
    {
      "name": "Object080",
      "mesh": 5
    }
  ],
  "samplers": [
    {
      "magFilter": 9729,
      "minFilter": 9986,
      "wrapS": 10497,
      "wrapT": 10497
    }
  ],
  "scene": 0,
  "scenes": [
    {
      "nodes": [
        0,
        1,
        2,
        3,
        4,
        5
      ]
    }
  ],
  "textures": [
    {
      "name": "Yellow_0829",
      "sampler": 0,
      "source": 0
    },
    {
      "name": "Benz001",
      "sampler": 0,
      "source": 1
    }
  ]
}
